# xmcd
#
# Track frame offsets:
#	150
#	13510
#	31332
#	44060
#	62290
#	74107
#	88300
#	104417
#	119837
#	130982
#	151375
#	165757
#	184565
#	199452
#	213512
#	232330
#
# Disc length: 3298 seconds
#
# Revision: 0
# Processed by: cddbd v1.5.2PL0 Copyright (c) Steve Scherf et al.
# Submitted via: audiograbber 1.83.01
#
DISCID=ef0ce010
DTITLE=Claudia de Colombia - 30 Grandes Éxitos de Oro 1
DYEAR=2001
DGENRE=Ballad
TTITLE0=Niégalo
TTITLE1=Lloraré
TTITLE2=Hoy daría yo la vida
TTITLE3=Paraiso
TTITLE4=Llanto y más llanto
TTITLE5=Después de tí
TTITLE6=Llorar, llorar
TTITLE7=Nuestra historia
TTITLE8=Llévame contigo
TTITLE9=Ya no eres mi amigo, eres mi vida
TTITLE10=Ternura
TTITLE11=Enamorados
TTITLE12=Extravío
TTITLE13=Si supieras
TTITLE14=Dos enamorados
TTITLE15=Tiempo para mar
EXTD=
EXTT0=
EXTT1=
EXTT2=
EXTT3=
EXTT4=
EXTT5=
EXTT6=
EXTT7=
EXTT8=
EXTT9=
EXTT10=
EXTT11=
EXTT12=
EXTT13=
EXTT14=
EXTT15=
PLAYORDER=
